<!DOCTYPE svg PUBLIC "-//W3C//DTD SVG 1.1//EN" "http://www.w3.org/Graphics/SVG/1.1/DTD/svg11.dtd">
<!-- Uploaded to: SVG Repo, www.svgrepo.com, Transformed by: SVG Repo Mixer Tools -->
<svg width="800px" height="800px" viewBox="-2.4 -2.4 28.80 28.80" xmlns="http://www.w3.org/2000/svg" fill="#000000" stroke="#000000" stroke-width="0.00024000000000000003" transform="matrix(-1, 0, 0, 1, 0, 0)">
<g id="SVGRepo_bgCarrier" stroke-width="0"/>
<g id="SVGRepo_tracerCarrier" stroke-linecap="round" stroke-linejoin="round" stroke="#CCCCCC" stroke-width="0.384"/>
<g id="SVGRepo_iconCarrier"> <g> <path fill="none" d="M0 0h24v24H0z"/> <path d="M14 10v4h-4v-4h4zm2 0h5v4h-5v-4zm-2 11h-4v-5h4v5zm2 0v-5h5v4a1 1 0 0 1-1 1h-4zM14 3v5h-4V3h4zm2 0h4a1 1 0 0 1 1 1v4h-5V3zm-8 7v4H3v-4h5zm0 11H4a1 1 0 0 1-1-1v-4h5v5zM8 3v5H3V4a1 1 0 0 1 1-1h4z"/> </g> </g>
</svg>